# xmcd CD database file
#
# Track frame offsets:
#	150
#	3745
#	27067
#	30770
#	51325
#	53895
#	71952
#	74155
#	95017
#	96760
#	118760
#	121527
#	143722
#	147180
#	168430
#	172967
#
# Disc length: 2601 seconds
#
# Revision: 1
# Processed by: cddbd v1.5.2PL0 Copyright (c) Steve Scherf et al.
# Submitted via: CDex 1.70beta3
#
DISCID=df0a2710
DTITLE=Various Artist - トゥルーラブストーリーボーカルコレクション Vol.2 バラード＆デュエット
DYEAR=1998
DGENRE=Game
TTITLE0=菊池志穂/桂木彩音Monologue
TTITLE1=菊池志穂/春のアクアリウム
TTITLE2=藤野かほる/広瀬のぞみMonologue
TTITLE3=藤野かほる/ブランコのうた
TTITLE4=西村ちなみ/みさきMonologue
TTITLE5=西村ちなみ, 藤野かほる/告白
TTITLE6=豊嶋真千子/後藤育美Monologue
TTITLE7=豊嶋真千子/明日からまた始めよう
TTITLE8=池澤春菜/天野みどりMonologue
TTITLE9=池澤春菜, 石川英郎/未来の恋人
TTITLE10=吉田愛理/水谷由香里Monologue
TTITLE11=吉田愛理/悲しきマーメイド
TTITLE12=西村ちなみ/みさきMonologue
TTITLE13=西村ちなみ/いつの日か、また逢いましょう
TTITLE14=池澤春菜/天野みどりMonologue 2
TTITLE15=池澤春菜/Good-Bye July ～約束の場所～
EXTD=YEAR: 1998
EXTT0=
EXTT1=
EXTT2=
EXTT3=
EXTT4=
EXTT5=
EXTT6=
EXTT7=
EXTT8=
EXTT9=
EXTT10=
EXTT11=
EXTT12=
EXTT13=
EXTT14=
EXTT15=
PLAYORDER=
